<?xml version="1.0" encoding="iso-8859-1"?>
<!-- Generator: Adobe Illustrator 17.1.0, SVG Export Plug-In . SVG Version: 6.00 Build 0)  -->
<!DOCTYPE svg PUBLIC "-//W3C//DTD SVG 1.1//EN" "http://www.w3.org/Graphics/SVG/1.1/DTD/svg11.dtd">
<svg xmlns="http://www.w3.org/2000/svg" xmlns:xlink="http://www.w3.org/1999/xlink" version="1.1" id="Capa_1" x="0px" y="0px" viewBox="0 0 207.469 207.469" style="enable-background:new 0 0 207.469 207.469;" xml:space="preserve" width="512px" height="512px">
<path d="M30.162,207.469c-1.91,0-3.785-0.532-5.446-1.567c-2.344-1.46-3.979-3.745-4.604-6.435L0.944,116.982  c-0.625-2.69-0.165-5.462,1.295-7.807c1.46-2.344,3.746-3.979,6.436-4.604l1.193-0.277l94.937-79.54l-2.563-2.318  c-1.912,1.245-4.192,1.968-6.638,1.968c-6.729,0-12.203-5.474-12.203-12.202S88.875,0,95.603,0s12.202,5.474,12.202,12.203  c0,2.111-0.539,4.099-1.486,5.833l3.129,2.83l1.442-1.209c1.084-0.907,2.653-0.936,3.769-0.068l59.739,46.474l0.547-0.127  c2.688-0.626,5.462-0.166,7.806,1.295c2.344,1.46,3.979,3.746,4.604,6.436l19.167,82.484c0.625,2.69,0.165,5.462-1.295,7.807  c-1.46,2.344-3.746,3.979-6.436,4.604L32.522,207.197C31.739,207.379,30.948,207.469,30.162,207.469z M11.867,109.99l-1.834,0.426  c-1.129,0.262-2.088,0.948-2.701,1.932c-0.613,0.984-0.806,2.147-0.543,3.276l19.167,82.484c0.542,2.33,2.877,3.782,5.208,3.244  l166.272-38.638h0c1.128-0.262,2.088-0.948,2.701-1.932c0.612-0.984,0.806-2.147,0.543-3.276l-19.168-82.485  c-0.262-1.129-0.948-2.088-1.932-2.701c-0.983-0.612-2.146-0.806-3.276-0.543L11.986,109.962  C11.946,109.973,11.907,109.982,11.867,109.99z M109.298,28.819l-86.501,72.472l144.079-33.48l-50.279-39.114  c-0.008,0.706-0.264,1.413-0.775,1.978c-1.111,1.229-3.009,1.324-4.237,0.213L109.298,28.819z M95.603,6  c-3.42,0-6.203,2.783-6.203,6.203s2.783,6.202,6.203,6.202s6.202-2.782,6.202-6.202S99.023,6,95.603,6z M50.106,172.605  c-3.197,0-6.337-0.893-9.116-2.627c-3.916-2.444-6.645-6.266-7.686-10.763l-3.008-12.994c-1.041-4.497-0.268-9.13,2.176-13.046  c2.444-3.916,6.266-6.645,10.763-7.686c9.282-2.149,18.583,3.656,20.731,12.939l3.008,12.994  c2.148,9.284-3.656,18.583-12.939,20.732C52.731,172.456,51.413,172.605,50.106,172.605z M47.132,131.043  c-0.84,0-1.692,0.095-2.544,0.292c-2.935,0.679-5.43,2.461-7.026,5.017c-1.595,2.556-2.1,5.581-1.42,8.516l3.008,12.994  c1.403,6.06,7.476,9.851,13.533,8.446c6.059-1.402,9.848-7.473,8.446-13.533l-3.008-12.994  C56.916,134.574,52.263,131.043,47.132,131.043z M79.747,166.036c-1.363,0-2.596-0.934-2.919-2.318l-4.507-19.294  c-0.067-0.158-0.121-0.323-0.16-0.493l-4.849-20.949c-0.202-0.874,0-1.748,0.484-2.424v0c0.002-0.002,0.003-0.004,0.005-0.007v0  c0.002-0.002,0.003-0.004,0.005-0.007v0c0.002-0.002,0.003-0.004,0.005-0.007v0c0.002-0.002,0.003-0.004,0.005-0.007l0,0  c0.001-0.002,0.003-0.004,0.005-0.007l0,0c0.001-0.002,0.003-0.004,0.005-0.006c0,0,0,0,0-0.001  c0.002-0.002,0.003-0.004,0.005-0.006c0,0,0,0,0.001-0.001c0.001-0.002,0.003-0.004,0.004-0.006c0,0,0,0,0,0  c0.002-0.002,0.003-0.004,0.005-0.006c0,0,0-0.001,0.001-0.001c0.001-0.002,0.003-0.004,0.004-0.006l0.001-0.001  c0.001-0.002,0.003-0.004,0.004-0.006c0,0,0.001,0,0.001-0.001c0.001-0.002,0.003-0.004,0.004-0.006c0,0,0-0.001,0.001-0.001  c0.001-0.002,0.003-0.004,0.004-0.006c0,0,0.001-0.001,0.001-0.001c0.001-0.002,0.003-0.004,0.004-0.006l0.001-0.001  c0.001-0.002,0.002-0.004,0.004-0.006c0,0,0.001-0.001,0.001-0.001c0.001-0.002,0.003-0.003,0.004-0.005  c0,0,0.001-0.001,0.001-0.002c0.001-0.001,0.002-0.003,0.004-0.005c0-0.001,0.001-0.001,0.001-0.002  c0.001-0.002,0.003-0.003,0.004-0.005c0,0,0.001-0.001,0.001-0.002c0.001-0.001,0.003-0.003,0.004-0.005  c0,0,0.001-0.001,0.002-0.002c0.001-0.002,0.002-0.003,0.004-0.005c0-0.001,0.001-0.001,0.001-0.002  c0.001-0.001,0.003-0.003,0.004-0.005c0.001,0,0.001-0.001,0.002-0.002c0.001-0.001,0.002-0.003,0.004-0.005  c0,0,0.001-0.001,0.002-0.002c0.001-0.001,0.002-0.003,0.004-0.004c0-0.001,0.001-0.001,0.002-0.002  c0.001-0.001,0.002-0.003,0.003-0.004c0.001-0.001,0.001-0.002,0.002-0.002c0.001-0.001,0.002-0.003,0.003-0.004  c0.001-0.001,0.001-0.002,0.002-0.002c0.001-0.001,0.002-0.003,0.004-0.004c0-0.001,0.001-0.002,0.002-0.003  c0.002-0.002,0.003-0.004,0.006-0.007c0.001-0.001,0.002-0.003,0.003-0.004c0,0,0.001-0.001,0.002-0.002  c0.001-0.001,0.002-0.003,0.004-0.004c0,0,0.001-0.001,0.002-0.002c0.001-0.001,0.002-0.003,0.004-0.004  c0,0,0.001-0.001,0.002-0.002c0.001-0.001,0.002-0.003,0.003-0.004c0.001-0.001,0.001-0.002,0.002-0.003  c0.001-0.002,0.003-0.005,0.006-0.007c0.002-0.002,0.004-0.004,0.006-0.007c0.002-0.002,0.004-0.004,0.006-0.006  c0.001-0.001,0.002-0.002,0.003-0.004c0.001-0.001,0.002-0.002,0.003-0.003c0.001-0.001,0.002-0.002,0.003-0.004  c0.001-0.002,0.004-0.004,0.006-0.006c0.002-0.003,0.004-0.005,0.006-0.007c0.001-0.001,0.002-0.002,0.003-0.003  c0.001-0.001,0.002-0.002,0.003-0.004c0.001-0.001,0.001-0.002,0.002-0.003c0.001-0.001,0.002-0.002,0.003-0.003  c0.002-0.003,0.004-0.005,0.006-0.007c0.003-0.002,0.004-0.004,0.006-0.006c0.001-0.001,0.002-0.002,0.003-0.003  c0.001-0.003,0.004-0.005,0.006-0.007c0.001-0.001,0.002-0.002,0.003-0.003c0.001-0.001,0.002-0.002,0.003-0.003  c0.002-0.002,0.004-0.004,0.006-0.006c0.001-0.001,0.002-0.002,0.003-0.003c0.001-0.001,0.002-0.002,0.003-0.003  c0.002-0.003,0.004-0.005,0.006-0.007c0.001-0.001,0.002-0.002,0.003-0.003c0.001-0.003,0.003-0.004,0.006-0.006  c0.001-0.001,0.002-0.002,0.003-0.004c0.002-0.002,0.004-0.003,0.006-0.006c0.003-0.002,0.004-0.004,0.006-0.006  c0.001-0.001,0.002-0.002,0.003-0.003c0.002-0.003,0.003-0.004,0.006-0.006c0.001-0.001,0.002-0.002,0.003-0.004  c0.002-0.002,0.003-0.003,0.007-0.006c0.002-0.002,0.003-0.003,0.006-0.006c0.002-0.002,0.003-0.003,0.006-0.006  c0.002-0.002,0.004-0.003,0.006-0.006c0.002-0.002,0.004-0.003,0.006-0.006c0.002-0.002,0.004-0.004,0.006-0.006  c0.002-0.002,0.004-0.004,0.007-0.006c0.002-0.002,0.004-0.004,0.006-0.006c0.002-0.002,0.004-0.004,0.006-0.006  s0.004-0.004,0.007-0.006c0.002-0.002,0.005-0.004,0.006-0.006c0.002-0.002,0.004-0.004,0.007-0.006  c0.001-0.001,0.002-0.002,0.003-0.003c0.003-0.002,0.005-0.004,0.007-0.006c0.001-0.001,0.002-0.002,0.003-0.003  c0.002-0.003,0.004-0.004,0.006-0.006c0.001-0.001,0.002-0.002,0.003-0.003c0.001-0.001,0.002-0.002,0.003-0.003  c0.002-0.002,0.004-0.004,0.007-0.006c0.001-0.002,0.004-0.004,0.006-0.006c0.002-0.003,0.004-0.005,0.007-0.006  c0.002-0.002,0.004-0.004,0.007-0.006c0.002-0.002,0.004-0.005,0.006-0.006c0.003-0.003,0.005-0.004,0.007-0.006  c0.002-0.002,0.004-0.004,0.007-0.006c0.001-0.001,0.002-0.002,0.004-0.003c0.003-0.002,0.006-0.004,0.007-0.006  c0.002-0.002,0.005-0.004,0.007-0.006c0.001-0.001,0.002-0.002,0.003-0.002c0.003-0.003,0.005-0.005,0.007-0.006  c0.001-0.001,0.003-0.002,0.004-0.004c0,0,0.001-0.001,0.002-0.002c0.001-0.001,0.003-0.002,0.004-0.004  c0.001,0,0.001-0.001,0.002-0.002c0.001-0.001,0.003-0.002,0.004-0.004c0.001,0,0.001-0.001,0.002-0.002  c0.001-0.001,0.003-0.002,0.004-0.004c0.002-0.001,0.004-0.003,0.007-0.006c0.001-0.002,0.004-0.003,0.007-0.006  c0.001,0,0.001-0.001,0.002-0.001c0.001-0.001,0.003-0.003,0.005-0.004c0,0,0.001-0.001,0.002-0.001  c0.002-0.002,0.006-0.004,0.007-0.006c0.002-0.001,0.003-0.002,0.005-0.004c0,0,0.001-0.001,0.002-0.001  c0.001-0.001,0.003-0.003,0.005-0.004c0.001,0,0.001-0.001,0.002-0.001c0.002-0.001,0.003-0.003,0.005-0.004  c0,0,0.001-0.001,0.001-0.001c0.004-0.002,0.007-0.003,0.007-0.005c0.002-0.001,0.003-0.003,0.005-0.004  c0,0,0.001-0.001,0.001-0.001c0.002-0.001,0.004-0.003,0.006-0.004c0,0,0.001,0,0.001-0.001c0.002-0.001,0.004-0.003,0.005-0.004  c0,0,0.001-0.001,0.001-0.001c0.002-0.002,0.004-0.003,0.006-0.005c0,0,0.001,0,0.001-0.001c0.002-0.001,0.004-0.003,0.006-0.004  c0,0,0.001-0.001,0.001-0.001c0.002-0.001,0.004-0.003,0.006-0.005c0,0,0,0,0,0c0.002-0.001,0.005-0.003,0.007-0.005  c0,0,0,0,0.001-0.001c0.002-0.001,0.004-0.003,0.006-0.005c0,0,0,0,0,0c0.002-0.001,0.004-0.003,0.007-0.005l0,0  c0.002-0.001,0.004-0.003,0.007-0.005l0,0c0.002-0.001,0.004-0.003,0.007-0.005c0,0,0,0,0,0c0.002-0.002,0.005-0.003,0.007-0.005  c0,0,0,0,0,0c0.002-0.002,0.004-0.003,0.007-0.005h0c0.002-0.002,0.004-0.003,0.007-0.005l0,0c0.311-0.226,0.669-0.396,1.065-0.491  l0,0c0.003,0,0.006-0.001,0.009-0.002c0,0.001,0.006-0.001,0.009-0.002l0,0c0.002,0,0.004,0,0.006-0.001l13.212-3.058  c7.385-1.709,14.789,2.91,16.498,10.297v0c0.828,3.579,0.213,7.266-1.731,10.382s-4.986,5.289-8.565,6.117l-10.241,2.37  l3.939,16.864c0.377,1.614-0.625,3.227-2.239,3.604C80.202,166.011,79.973,166.036,79.747,166.036z M73.84,124.55l3.526,15.097  l10.253-2.373c2.017-0.467,3.732-1.691,4.828-3.448s1.443-3.834,0.976-5.852v0c-0.963-4.164-5.132-6.768-9.3-5.804L73.84,124.55z   M114.458,157.976c-1.363,0-2.596-0.934-2.919-2.318c-0.002-0.009-0.004-0.017-0.006-0.025l-4.603-19.703  c-0.005-0.021-0.01-0.042-0.015-0.063s-0.01-0.042-0.014-0.063l-4.876-20.877c-0.08-0.344-0.098-0.687-0.061-1.019c0,0,0,0,0,0  c0.001-0.009,0.002-0.018,0.003-0.027c0-0.001,0-0.001,0-0.001c0-0.006,0.001-0.012,0.002-0.017  c0.001-0.005,0.001-0.011,0.002-0.016c0,0,0-0.001,0-0.001c0.09-0.671,0.407-1.29,0.887-1.756c0.001-0.001,0.002-0.002,0.003-0.003  c0.004-0.004,0.008-0.007,0.012-0.011c0.002-0.002,0.004-0.004,0.006-0.006c0.001-0.001,0.002-0.002,0.002-0.003  c0.006-0.005,0.012-0.011,0.018-0.016l0,0c0.371-0.346,0.834-0.603,1.363-0.726c0.002,0,0.004-0.001,0.007-0.001l23.129-5.402  c1.613-0.38,3.227,0.625,3.604,2.239c0.377,1.613-0.625,3.227-2.239,3.604l-20.213,4.721l3.526,15.097l12.501-2.92  c1.615-0.378,3.227,0.626,3.604,2.239c0.377,1.614-0.625,3.227-2.239,3.604l-12.502,2.92l3.258,13.948l20.213-4.722  c1.616-0.38,3.227,0.625,3.604,2.239c0.377,1.614-0.625,3.227-2.239,3.604l-23.135,5.404  C114.913,157.951,114.683,157.976,114.458,157.976z M149.592,149.799c-1.363,0-2.596-0.934-2.919-2.318l-9.514-40.73  c-0.265-1.135,0.152-2.27,0.985-2.974c0.003-0.003,0.006-0.007,0.009-0.01c1.112-1.229,3.009-1.324,4.237-0.211l31.449,28.467  l-7.495-32.088c-0.377-1.613,0.625-3.227,2.239-3.604c1.61-0.379,3.227,0.625,3.604,2.239l9.514,40.73  c0.265,1.136-0.153,2.272-0.987,2.977c-0.002,0.003-0.005,0.005-0.007,0.008c-1.111,1.229-3.008,1.324-4.237,0.211l-31.448-28.466  l7.495,32.088c0.377,1.613-0.625,3.227-2.239,3.604C150.047,149.774,149.817,149.799,149.592,149.799z" fill="#FFFFFF"/>
<g>
</g>
<g>
</g>
<g>
</g>
<g>
</g>
<g>
</g>
<g>
</g>
<g>
</g>
<g>
</g>
<g>
</g>
<g>
</g>
<g>
</g>
<g>
</g>
<g>
</g>
<g>
</g>
<g>
</g>
</svg>
